<svg xmlns="http://www.w3.org/2000/svg" viewBox="0 0 480 600" fill="none">
  <path d="M 67.0,559.9 L 115.8,574.8 L 129.8,565.5 L 148.3,559.2 L 166.3,552.6 L 181.3,544.0 L 196.0,535.1 L 214.1,528.5 L 212.4,508.2 L 233.4,503.7 L 236.7,486.8 L 251.1,477.8 L 269.0,471.1 L 277.8,458.1 L 286.5,445.0 L 291.4,429.3 L 308.0,421.7 L 325.2,414.5 L 325.1,395.4 L 333.5,382.0 L 355.2,378.0 L 358.3,361.1 L 360.5,343.4 L 364.7,327.1 L 379.0,318.0 L 395.0,310.0 L 395.5,291.2 L 411.0,282.8 L 406.7,260.7 L 417.6,249.2 L 424.0,234.5 L 437.4,224.6 L 436.5,204.8 L 441.6,189.2 L 438.1,167.6 L 438.9,149.0 L 449.9,137.6 L 448.5,117.4 L 444.9,95.7 L 447.6,78.5 L 421.4,41.0 L 425.6,43.9 L 372.5,26.0 L 354.6,32.6 L 325.2,31.2 L 319.6,46.5 L 310.7,59.5 L 288.4,63.0 L 273.5,71.7 L 265.3,85.2 L 250.0,93.7 L 232.5,100.6 L 220.2,111.2 L 213.5,125.6 L 201.0,136.1 L 198.5,153.5 L 184.0,162.5 L 166.5,169.4 L 169.5,190.7 L 149.2,195.7 L 134.6,204.6 L 139.1,227.0 L 133.1,241.9 L 111.2,245.8 L 113.3,266.4 L 105.4,280.1 L 84.4,284.6 L 80.0,300.7 L 72.4,314.5 L 78.4,337.9 L 63.6,346.7 L 58.3,362.1 L 45.4,372.3 L 52.4,396.4 L 33.7,402.5 L 28.2,417.8 L 35.7,442.2 L 24.3,453.4 L 35.5,480.4 L 23.3,491.0 L 25.6,511.8 L 54.3,551.0 Z" fill="#fce0ea" opacity="0.95" />
  <path d="M 76.1,532.3 L 121.4,544.1 L 131.6,531.4 L 153.1,526.5 L 156.6,509.2 L 170.6,499.1 L 190.1,492.9 L 197.8,478.4 L 210.3,467.3 L 230.8,461.8 L 240.1,448.5 L 243.5,431.0 L 252.2,417.2 L 274.9,413.3 L 275.9,394.2 L 289.3,383.6 L 292.7,366.2 L 312.7,360.4 L 317.7,344.0 L 328.2,331.5 L 329.4,312.5 L 342.5,301.8 L 356.6,291.8 L 360.4,274.7 L 368.4,260.4 L 382.9,250.7 L 381.0,229.6 L 385.4,212.8 L 396.8,200.9 L 410.4,190.6 L 412.7,172.4 L 417.4,155.8 L 423.0,139.9 L 424.0,120.8 L 432.1,106.6 L 433.4,87.6 L 415.0,55.0 L 413.5,54.0 L 384.3,53.4 L 358.5,55.2 L 353.4,71.5 L 327.7,73.4 L 316.6,85.5 L 305.4,97.5 L 299.6,113.3 L 282.4,121.0 L 265.3,128.9 L 255.6,142.0 L 243.1,153.1 L 236.1,168.1 L 228.9,182.9 L 217.7,194.9 L 207.7,207.7 L 194.6,218.4 L 181.4,229.0 L 184.7,251.1 L 172.3,262.3 L 153.7,269.2 L 157.1,291.4 L 137.2,297.3 L 139.6,318.8 L 130.0,332.0 L 124.0,347.6 L 114.6,360.9 L 108.6,376.5 L 93.6,385.8 L 84.0,399.0 L 83.4,418.4 L 81.1,436.6 L 68.6,447.7 L 61.1,462.3 L 64.7,484.7 L 63.7,503.8 L 85.4,538.7 Z" fill="#f6d3dd" opacity="0.9" />
  <path d="M 99.9,499.9 L 118.7,493.1 L 136.2,485.3 L 144.5,471.1 L 162.3,463.5 L 170.2,449.1 L 185.6,439.9 L 194.7,426.2 L 207.3,415.0 L 216.5,401.5 L 222.4,385.6 L 241.3,378.8 L 241.9,359.3 L 261.4,352.9 L 264.9,335.4 L 277.4,324.1 L 281.1,306.7 L 293.5,295.4 L 303.9,282.6 L 308.4,265.8 L 319.6,253.6 L 325.2,237.6 L 335.6,224.9 L 346.7,212.6 L 356.5,199.5 L 366.4,186.4 L 367.1,166.9 L 378.4,154.8 L 381.0,136.7 L 395.2,126.6 L 404.6,113.2 L 403.7,92.5 L 399.3,69.5 L 396.1,67.3 L 376.9,73.9 L 365.1,85.6 L 348.9,94.3 L 339.8,107.9 L 332.0,122.5 L 319.4,133.6 L 303.6,142.6 L 295.8,157.1 L 287.2,171.1 L 269.5,178.7 L 258.8,191.3 L 255.5,208.9 L 240.7,218.6 L 236.1,235.4 L 227.7,249.4 L 209.6,256.8 L 208.4,275.9 L 196.1,287.3 L 191.2,303.9 L 179.4,315.6 L 164.6,325.3 L 166.5,346.6 L 153.1,357.2 L 148.6,374.1 L 139.6,387.8 L 133.6,403.5 L 117.8,412.6 L 114.8,430.4 L 102.5,441.8 L 100.5,460.4 L 98.5,479.0 L 99.3,499.5 Z" fill="#f17aa8" opacity="0.75" />
  <circle cx="45.4" cy="574.3" r="6.6" fill="#f6d3dd" opacity="0.85" />
  <circle cx="87.4" cy="542.3" r="4.4" fill="#f6d3dd" opacity="0.85" />
  <circle cx="72.8" cy="510.1" r="5.1" fill="#f6d3dd" opacity="0.85" />
  <circle cx="30.8" cy="507.0" r="5.1" fill="#f6d3dd" opacity="0.85" />
  <circle cx="60.6" cy="562.0" r="6.9" fill="#f6d3dd" opacity="0.85" />
  <circle cx="51.3" cy="564.4" r="7.1" fill="#f6d3dd" opacity="0.85" />
  <circle cx="32.2" cy="543.2" r="8.0" fill="#f6d3dd" opacity="0.85" />
  <circle cx="32.3" cy="527.8" r="6.3" fill="#f6d3dd" opacity="0.85" />
  <circle cx="416.8" cy="58.6" r="6.4" fill="#ef4a86" opacity="0.7" />
  <circle cx="398.7" cy="87.2" r="5.9" fill="#ef4a86" opacity="0.7" />
  <circle cx="405.9" cy="57.3" r="3.6" fill="#ef4a86" opacity="0.7" />
  <circle cx="397.2" cy="68.1" r="6.5" fill="#ef4a86" opacity="0.7" />
  <circle cx="402.1" cy="78.7" r="6.8" fill="#ef4a86" opacity="0.7" />
  <circle cx="449.5" cy="48.3" r="6.5" fill="#ef4a86" opacity="0.7" />
  <circle cx="428.8" cy="76.1" r="7.8" fill="#ef4a86" opacity="0.7" />
</svg>
